<?xml version="1.0" encoding="utf-8"?>
<!-- Generator: Adobe Illustrator 22.1.0, SVG Export Plug-In . SVG Version: 6.00 Build 0)  -->
<svg version="1.1" id="Layer_1" xmlns="http://www.w3.org/2000/svg" xmlns:xlink="http://www.w3.org/1999/xlink" x="0px" y="0px"
	 viewBox="0 0 1024 1024" style="enable-background:new 0 0 1024 1024;" xml:space="preserve">
<style type="text/css">
	.st0{fill:none;stroke:#010101;stroke-width:11;stroke-linecap:round;stroke-linejoin:round;stroke-miterlimit:10;}
	.st1{fill:#010101;}
</style>
<path class="st0" d="M218.8,900.2c0,3.7,0-105.5,0-225.4c20.7,53.5,72.6,91.5,133.4,91.5c79,0,143-64,143-143s-64-143-143-143
	c-60.5,0-112.6,37.6-133.4,90.8V422.1l272.9,0l67.5-40.1H137.7l385.2-258.3L671.3,247l0-42.1h100.2l0,107.4l114.8,68H799
	c0,0,0,190.7,0,190.7c-20.9-53.2-72.6-90.8-133.2-90.8c-79,0-143,64-143,143s64,143,143,143c60.8,0,112.5-37.9,133.2-91.5l0-0.1
	l0,118.1"/>
<path id="locker" class="st1" d="M627.8,687.9h75.3l-22.2-63.8l-0.7,0c9.4-5.2,15.7-15.2,15.7-26.7c0-16.8-13.6-30.5-30.5-30.5
	S635,580.6,635,597.4c0,11.3,6.2,21.1,15.3,26.4l0,0L627.8,687.9z"/>
<g id="passos">
	<g>
		<path class="st1" d="M279.5,786.5c6.6,3.6,11.7,8.5,15.4,14.9c3.7,6.3,5.6,13.5,5.6,21.4c0,8-1.9,15.2-5.6,21.5
			c-3.7,6.3-8.8,11.3-15.3,15c-6.5,3.6-13.8,5.4-21.8,5.4c-7,0-13.5-1.5-19.4-4.4c-5.9-2.9-10.6-6.9-14.1-11.8v42.2
			c0,1.4-0.5,2.5-1.5,3.4c-1,0.9-2.3,1.4-3.9,1.4c-1.6,0-2.9-0.5-3.9-1.4c-1-0.9-1.5-2.1-1.5-3.4V786.4c0-1.4,0.5-2.6,1.5-3.5
			c1-1,2.3-1.4,3.9-1.4c1.6,0,2.9,0.5,3.9,1.4c1,1,1.5,2.1,1.5,3.5v10.9c3.2-5,7.7-9,13.7-11.8c6-2.9,12.5-4.3,19.7-4.3
			C265.6,781.2,272.9,783,279.5,786.5z M273.7,851.5c5-2.8,9-6.7,11.8-11.8c2.9-5,4.3-10.7,4.3-17c0-6.2-1.4-11.8-4.3-16.7
			c-2.9-5-6.8-8.9-11.8-11.7c-5-2.8-10.7-4.2-17-4.2c-6.4,0-12.2,1.4-17.3,4.2c-5.1,2.8-9.1,6.6-11.8,11.6c-2.8,5-4.2,10.6-4.2,16.9
			c0,6.3,1.4,11.9,4.2,17c2.8,5,6.7,8.9,11.8,11.8c5.1,2.8,10.9,4.2,17.3,4.2C263,855.7,268.7,854.3,273.7,851.5z"/>
	</g>
	<g>
		<path class="st1" d="M408.6,783.2c1,1,1.5,2.1,1.5,3.5v72c0,1.4-0.5,2.5-1.5,3.4c-1,0.9-2.3,1.4-3.9,1.4c-1.6,0-2.9-0.5-3.9-1.4
			c-1-0.9-1.5-2.1-1.5-3.4V848c-3,4.8-7.6,8.9-13.7,12.2c-6.1,3.3-12.7,5-19.9,5c-8.1,0-15.5-1.9-22-5.6
			c-6.5-3.7-11.6-8.9-15.3-15.4c-3.7-6.5-5.6-13.8-5.6-21.9c0-8.1,1.9-15.4,5.7-21.8c3.8-6.5,8.9-11.5,15.4-15.1
			c6.5-3.6,13.7-5.4,21.6-5.4c7.3,0,14,1.5,20.1,4.6c6.1,3.1,10.6,7.1,13.7,12.2v-9.9c0-1.4,0.5-2.6,1.5-3.5c1-1,2.3-1.4,3.9-1.4
			C406.3,781.8,407.6,782.3,408.6,783.2z M383.8,851.8c5-2.9,9-7,11.8-12.2c2.9-5.2,4.3-11,4.3-17.4c0-6.2-1.4-11.8-4.3-17
			c-2.9-5.1-6.8-9.1-11.8-12.1c-5-2.9-10.7-4.4-17-4.4c-6.3,0-12,1.4-17,4.3c-5,2.9-9,6.9-11.8,11.9c-2.9,5.1-4.3,10.8-4.3,17.2
			c0,6.4,1.4,12.2,4.2,17.4c2.8,5.2,6.7,9.2,11.8,12.2c5,2.9,10.8,4.4,17.2,4.4C373.1,856.2,378.8,854.7,383.8,851.8z"/>
	</g>
	<g>
		<path class="st1" d="M438.1,847.1c0-1.4,0.8-2.5,2.4-3.2c0.7-0.6,1.7-1,2.9-1c1.5,0,2.8,0.5,4,1.6c7.2,8.3,16.7,12.5,28.6,12.5
			c5.8,0,10.9-1.2,15.2-3.6c4.3-2.4,6.5-5.9,6.5-10.5c0-4.5-2-7.8-6-10.1c-4-2.2-9.6-4.2-16.8-5.8c-10.1-2.2-18-5.1-23.7-8.7
			c-5.7-3.6-8.6-8.8-8.6-15.8c0-4.4,1.4-8.3,4.2-11.8c2.8-3.5,6.6-6.2,11.4-8.1c4.8-1.9,10.2-2.9,16.3-2.9c5.2,0,10.5,0.9,15.8,2.6
			c5.3,1.8,9.8,4.6,13.6,8.4c1.1,0.7,1.6,1.8,1.6,3.2c0,1.3-0.6,2.4-1.8,3.4c-0.9,0.6-1.9,1-3.3,1c-1.2,0-2.3-0.4-3.3-1.3
			c-2.9-2.9-6.4-5.1-10.4-6.6c-4-1.5-8.3-2.2-12.9-2.2c-5.7,0-10.6,1.2-14.7,3.5c-4.1,2.3-6.1,5.9-6.1,10.6c0.2,4.3,2.5,7.5,6.7,9.8
			c4.2,2.2,10.4,4.3,18.5,6.1c6.3,1.4,11.5,2.9,15.7,4.6c4.1,1.7,7.5,4.1,10.1,7.2c2.6,3.1,3.9,7.2,3.9,12.3
			c0,6.9-3.2,12.5-9.5,16.6c-6.3,4.1-14.2,6.2-23.5,6.2c-14.8,0-26.6-4.9-35.4-14.6C438.5,849.2,438.1,848,438.1,847.1z"/>
	</g>
	<g>
		<path class="st1" d="M529.6,847.1c0-1.4,0.8-2.5,2.4-3.2c0.7-0.6,1.7-1,2.9-1c1.5,0,2.8,0.5,4,1.6c7.2,8.3,16.7,12.5,28.6,12.5
			c5.8,0,10.9-1.2,15.2-3.6c4.3-2.4,6.5-5.9,6.5-10.5c0-4.5-2-7.8-6-10.1c-4-2.2-9.6-4.2-16.8-5.8c-10.1-2.2-18-5.1-23.7-8.7
			c-5.7-3.6-8.6-8.8-8.6-15.8c0-4.4,1.4-8.3,4.2-11.8c2.8-3.5,6.6-6.2,11.4-8.1c4.8-1.9,10.2-2.9,16.3-2.9c5.2,0,10.5,0.9,15.8,2.6
			s9.8,4.6,13.6,8.4c1.1,0.7,1.6,1.8,1.6,3.2c0,1.3-0.6,2.4-1.8,3.4c-0.9,0.6-1.9,1-3.3,1c-1.2,0-2.3-0.4-3.3-1.3
			c-2.9-2.9-6.4-5.1-10.4-6.6c-4-1.5-8.3-2.2-12.9-2.2c-5.7,0-10.6,1.2-14.7,3.5c-4.1,2.3-6.1,5.9-6.1,10.6c0.2,4.3,2.5,7.5,6.7,9.8
			c4.2,2.2,10.4,4.3,18.5,6.1c6.3,1.4,11.5,2.9,15.7,4.6c4.1,1.7,7.5,4.1,10.1,7.2c2.6,3.1,3.9,7.2,3.9,12.3
			c0,6.9-3.2,12.5-9.5,16.6c-6.3,4.1-14.2,6.2-23.5,6.2c-14.8,0-26.6-4.9-35.4-14.6C530,849.2,529.6,848,529.6,847.1z"/>
	</g>
	<g>
		<path class="st1" d="M707.8,844.4c-4,6.5-9.5,11.6-16.6,15.3c-7,3.7-14.9,5.5-23.5,5.5c-8.6,0-16.5-1.8-23.5-5.5
			c-7-3.7-12.6-8.8-16.6-15.3c-4-6.5-6-13.8-6-21.8s2-15.3,6-21.8c4-6.5,9.5-11.6,16.6-15.4c7-3.7,14.9-5.6,23.5-5.6
			c8.6,0,16.5,1.9,23.5,5.6c7,3.7,12.6,8.9,16.6,15.4c4,6.5,6,13.8,6,21.8S711.8,837.9,707.8,844.4z M698.4,805.3
			c-3-5.1-7.3-9.1-12.7-12.1c-5.4-2.9-11.4-4.4-18-4.4s-12.5,1.5-17.9,4.4c-5.3,2.9-9.6,7-12.7,12.1c-3.1,5.1-4.6,10.9-4.6,17.3
			c0,6.3,1.5,12,4.6,17.1c3.1,5.1,7.3,9.1,12.7,12.1c5.3,2.9,11.3,4.4,17.9,4.4s12.5-1.4,18-4.3c5.4-2.9,9.6-6.9,12.7-12
			c3-5.1,4.6-10.9,4.6-17.3S701.4,810.4,698.4,805.3z"/>
	</g>
	<g>
		<path class="st1" d="M735.5,847.1c0-1.4,0.8-2.5,2.4-3.2c0.7-0.6,1.7-1,2.9-1c1.5,0,2.8,0.5,4,1.6c7.2,8.3,16.7,12.5,28.6,12.5
			c5.8,0,10.9-1.2,15.2-3.6c4.3-2.4,6.5-5.9,6.5-10.5c0-4.5-2-7.8-6-10.1c-4-2.2-9.6-4.2-16.8-5.8c-10.1-2.2-18-5.1-23.7-8.7
			c-5.7-3.6-8.6-8.8-8.6-15.8c0-4.4,1.4-8.3,4.2-11.8c2.8-3.5,6.6-6.2,11.4-8.1c4.8-1.9,10.2-2.9,16.3-2.9c5.2,0,10.5,0.9,15.8,2.6
			s9.8,4.6,13.6,8.4c1.1,0.7,1.6,1.8,1.6,3.2c0,1.3-0.6,2.4-1.8,3.4c-0.9,0.6-1.9,1-3.3,1c-1.2,0-2.3-0.4-3.3-1.3
			c-2.9-2.9-6.4-5.1-10.4-6.6c-4-1.5-8.3-2.2-12.9-2.2c-5.7,0-10.6,1.2-14.7,3.5c-4.1,2.3-6.1,5.9-6.1,10.6c0.2,4.3,2.5,7.5,6.7,9.8
			c4.2,2.2,10.4,4.3,18.5,6.1c6.3,1.4,11.5,2.9,15.7,4.6c4.1,1.7,7.5,4.1,10.1,7.2c2.6,3.1,3.9,7.2,3.9,12.3
			c0,6.9-3.2,12.5-9.5,16.6c-6.3,4.1-14.2,6.2-23.5,6.2c-14.8,0-26.6-4.9-35.4-14.6C736,849.2,735.5,848,735.5,847.1z"/>
	</g>
</g>
</svg>
