<?xml version="1.0" standalone="no"?>
<!DOCTYPE svg PUBLIC "-//W3C//DTD SVG 20010904//EN"
 "http://www.w3.org/TR/2001/REC-SVG-20010904/DTD/svg10.dtd">
<svg version="1.0" xmlns="http://www.w3.org/2000/svg"
 width="1024.000000pt" height="1024.000000pt" viewBox="0 0 1024.000000 1024.000000"
 preserveAspectRatio="xMidYMid meet">
<metadata>
Created by potrace 1.14, written by Peter Selinger 2001-2017
</metadata>
<g transform="translate(0.000000,1024.000000) scale(0.100000,-0.100000)"
fill="#000000" stroke="none">
<path d="M5198 9046 c-15 -8 -237 -156 -495 -328 -257 -173 -709 -476 -1003
-673 -294 -197 -577 -387 -628 -422 -51 -35 -97 -63 -102 -63 -5 0 -10 -4 -12
-8 -1 -4 -172 -121 -378 -259 -1036 -693 -1245 -834 -1252 -848 -13 -22 2 -66
26 -74 11 -4 922 -7 2023 -7 1463 1 1999 -2 1990 -10 -7 -6 -113 -71 -237
-145 l-225 -133 -1360 -1 c-748 -1 -1370 -4 -1381 -8 -12 -4 -25 -18 -28 -30
-3 -12 -6 -359 -6 -772 1 -784 0 -772 43 -788 33 -12 55 11 97 101 209 446
613 737 1105 797 60 7 221 7 295 0 88 -8 258 -51 350 -87 283 -112 525 -317
686 -583 65 -107 138 -293 160 -410 2 -11 6 -31 9 -45 3 -14 9 -54 12 -90 44
-418 -96 -821 -390 -1118 -263 -267 -627 -415 -1001 -407 -156 4 -254 20 -392
64 -364 116 -673 392 -834 743 -29 63 -51 98 -63 102 -26 6 -63 -9 -71 -29 -3
-9 -6 -528 -6 -1154 0 -894 3 -1141 13 -1154 21 -27 60 -31 82 -7 17 19 19 40
19 280 0 143 3 260 8 260 4 0 8 -4 8 -10 0 -18 108 -91 166 -112 108 -39 269
-29 361 23 141 79 215 203 216 364 1 140 -48 248 -150 331 -81 66 -148 88
-273 88 -129 1 -205 -24 -279 -90 -27 -24 -51 -44 -53 -44 -2 0 -4 215 -4 477
-1 438 1 475 15 453 282 -433 741 -690 1236 -694 160 -1 224 5 350 33 171 37
367 120 505 214 404 274 650 728 654 1207 1 165 -6 238 -36 364 -143 615 -661
1073 -1288 1142 -48 5 -266 5 -315 -1 -424 -47 -809 -272 -1051 -612 -37 -51
-67 -93 -68 -93 -1 0 -2 267 -2 593 l1 592 1345 0 1345 0 42 25 c24 14 89 52
145 86 57 33 196 116 310 183 113 67 209 129 212 137 11 28 -5 62 -32 71 -15
5 -924 9 -2034 9 -1105 -1 -2008 1 -2008 4 1 3 231 159 513 347 282 188 838
561 1237 828 1238 831 1490 1000 1514 1015 13 8 105 70 205 138 111 75 186
120 194 115 10 -6 594 -489 677 -559 14 -12 66 -55 115 -96 123 -101 291 -240
470 -389 218 -180 201 -169 235 -157 26 9 43 32 39 54 -1 5 -1 88 0 185 l1
176 445 0 445 0 0 -522 c0 -485 1 -523 18 -537 13 -12 683 -412 820 -490 19
-10 62 -36 95 -58 l62 -39 -343 1 c-308 1 -345 -1 -360 -16 -16 -15 -17 -86
-17 -851 0 -458 -4 -837 -8 -841 -4 -4 -7 -2 -7 4 0 22 -150 210 -226 282
-155 147 -268 222 -474 313 -192 85 -475 126 -715 102 -589 -58 -1106 -486
-1270 -1052 -108 -372 -73 -754 99 -1096 73 -146 152 -253 281 -382 326 -327
776 -479 1235 -419 295 38 580 168 787 357 109 100 164 164 278 321 l20 28 0
-415 c0 -229 -3 -418 -5 -421 -3 -3 -35 4 -70 15 -134 41 -290 21 -380 -51
-96 -76 -107 -217 -23 -291 50 -43 118 -73 238 -104 140 -36 201 -62 231 -98
22 -26 25 -38 21 -75 -9 -84 -86 -128 -222 -126 -101 1 -176 29 -243 90 -56
49 -92 57 -116 22 -24 -33 -1 -66 89 -128 122 -83 335 -96 470 -29 94 47 138
119 128 209 -13 116 -76 163 -298 220 -183 46 -245 86 -247 159 -2 54 58 113
129 128 45 9 139 6 180 -7 21 -7 66 -30 99 -51 52 -33 65 -38 87 -30 14 5 29
16 33 23 12 19 13 1208 1 1233 -12 25 -27 35 -50 35 -24 0 -46 -28 -77 -102
-85 -198 -230 -381 -426 -538 -101 -81 -341 -202 -446 -224 -13 -3 -43 -10
-68 -17 -130 -32 -318 -42 -475 -26 -163 17 -368 85 -520 174 -522 302 -784
892 -660 1483 42 196 150 422 280 580 41 50 142 149 203 199 200 163 466 272
727 297 56 5 245 5 275 0 14 -2 59 -10 100 -17 110 -17 272 -72 378 -126 272
-141 482 -356 619 -635 35 -71 64 -119 75 -121 31 -9 56 4 65 32 5 14 9 441 9
948 l-1 923 40 1 c22 0 210 0 418 0 360 1 380 2 398 20 28 28 23 55 -13 82
-28 21 -424 257 -983 587 l-130 77 -3 536 -2 537 -23 14 c-19 13 -102 15 -534
15 -474 -1 -515 -2 -535 -18 -20 -17 -21 -26 -21 -174 1 -87 -2 -157 -6 -157
-6 0 -189 149 -251 204 -14 12 -88 73 -165 136 -77 63 -142 117 -145 120 -3 4
-70 60 -150 125 -80 66 -154 127 -165 137 -169 143 -531 438 -539 438 -6 0
-23 -6 -38 -14z m-2511 -6730 c70 -23 145 -92 179 -164 23 -48 28 -70 27 -137
0 -135 -60 -238 -174 -295 -55 -29 -71 -32 -162 -32 -126 1 -224 57 -282 164
-25 45 -29 65 -31 143 -4 125 13 174 86 247 46 45 69 60 120 76 76 23 164 22
237 -2z"/>
<path d="M6564 4559 c-87 -25 -181 -122 -205 -212 -16 -60 -6 -163 21 -217 12
-25 44 -65 70 -90 l47 -45 -108 -310 c-60 -171 -109 -313 -109 -317 0 -5 169
-8 375 -8 206 0 375 2 375 3 0 4 -8 29 -143 417 l-74 215 52 52 c198 193 62
526 -213 522 -31 0 -71 -5 -88 -10z"/>
<path d="M3599 2439 c-178 -24 -313 -139 -358 -305 -11 -42 -16 -162 -8 -199
37 -164 145 -287 292 -330 66 -19 175 -21 236 -5 67 18 156 69 194 112 l35 38
0 -59 c0 -38 5 -63 14 -70 22 -19 59 -21 80 -6 18 14 19 32 19 395 0 410 0
410 -54 410 -42 0 -59 -24 -59 -83 l0 -51 -42 42 c-52 53 -150 101 -220 108
-29 3 -57 6 -63 8 -5 1 -35 -1 -66 -5z m202 -116 c186 -82 252 -315 142 -497
-87 -144 -307 -189 -455 -94 -115 73 -171 216 -143 363 23 114 119 214 240
246 51 14 166 4 216 -18z"/>
<path d="M4683 2439 c-142 -17 -245 -100 -256 -205 -9 -88 28 -151 116 -196
69 -34 82 -39 213 -73 155 -40 209 -75 214 -136 4 -50 -1 -67 -27 -93 -53 -53
-155 -76 -258 -57 -72 14 -128 41 -185 92 -49 44 -93 50 -114 16 -24 -38 68
-128 174 -168 65 -24 195 -37 270 -26 62 9 153 48 189 80 58 53 77 157 42 232
-32 72 -119 118 -301 160 -111 26 -195 67 -214 104 -33 63 -7 124 67 159 102
48 262 24 344 -50 31 -29 70 -31 88 -5 19 28 19 29 -7 59 -52 57 -131 94 -222
104 -28 3 -55 6 -61 8 -5 1 -38 -1 -72 -5z"/>
<path d="M5627 2444 c-1 -1 -20 -4 -42 -7 -59 -9 -108 -28 -159 -64 -61 -43
-80 -82 -81 -165 0 -59 3 -70 31 -105 40 -50 134 -97 259 -129 139 -35 201
-61 231 -97 22 -26 25 -38 21 -74 -2 -24 -13 -53 -23 -65 -31 -34 -103 -61
-175 -64 -111 -5 -201 27 -274 97 -62 60 -123 50 -116 -18 2 -27 105 -108 166
-131 124 -47 280 -45 391 3 93 41 138 106 137 196 -2 124 -69 180 -281 234
-206 52 -262 87 -262 165 0 80 82 133 205 132 82 -1 135 -18 210 -68 53 -35
56 -36 80 -20 34 23 31 48 -10 85 -45 39 -76 55 -145 74 -48 14 -155 28 -163
21z"/>
<path d="M6585 2433 c-192 -35 -331 -167 -363 -344 -43 -231 113 -448 353
-494 56 -11 180 -5 239 10 240 63 376 297 308 530 -62 214 -294 343 -537 298z
m180 -94 c157 -43 254 -157 260 -306 3 -69 -16 -156 -41 -184 -8 -8 -14 -20
-14 -26 0 -19 -83 -85 -140 -111 -47 -22 -70 -26 -150 -27 -88 0 -101 3 -162
33 -81 40 -139 102 -169 181 -28 74 -23 195 9 258 76 146 251 225 407 182z"/>
</g>
</svg>
